<svg width="42" height="42" viewBox="0 0 42 42" fill="none" xmlns="http://www.w3.org/2000/svg">
<circle cx="21" cy="21" r="21" fill="#D7CE07"/>
<path fill-rule="evenodd" clip-rule="evenodd" d="M28.2529 17.0843C28.7824 17.4095 28.9002 18.092 28.6243 18.5863L28.6081 18.6152L28.5898 18.6428C28.1358 19.3279 27.7284 20.0406 27.3675 20.7812C27.3923 20.7867 27.4183 20.7924 27.4459 20.7984C27.4539 20.8002 27.4622 20.8019 27.4705 20.8037C27.6582 20.8445 27.927 20.9028 28.1842 21.0122C28.5053 21.1446 28.7192 21.3438 28.8846 21.525L28.8928 21.534L28.9008 21.5433C29.4347 22.163 29.6295 23.1547 29.1942 24.0069C28.8942 24.8038 28.1791 25.3555 27.4074 25.471C26.8398 25.5587 26.3886 25.388 26.0629 25.2278C25.9684 25.1813 25.8538 25.1192 25.7629 25.0699C25.7384 25.0567 25.7157 25.0444 25.6955 25.0335C25.4852 25.8205 25.3297 26.6179 25.2289 27.426C25.2187 27.7852 25.0296 28.0748 24.7943 28.2419C24.5617 28.4071 24.2926 28.456 24.0562 28.4299C22.887 28.3243 21.7826 27.9299 20.7828 27.463L20.7794 27.4614C20.2114 27.1929 19.7857 26.512 19.9894 25.7477L19.9918 25.7388C20.085 25.4026 20.2712 25.0504 20.3941 24.8177C20.4237 24.7617 20.4496 24.7126 20.4697 24.6723C20.6115 24.3881 20.6285 24.2739 20.6226 24.2112L20.6214 24.1989L20.6206 24.1867C20.6065 23.9768 20.4416 23.7571 20.2676 23.6877C20.1126 23.626 19.8374 23.6691 19.6722 23.832C19.6105 23.8957 19.5488 24.0102 19.4728 24.3045C19.4612 24.3492 19.4483 24.4042 19.4336 24.4665C19.3741 24.7195 19.2858 25.0946 19.1428 25.4064C18.7967 26.1683 17.999 26.3062 17.4719 26.1697L17.4604 26.1668L17.4491 26.1635C16.3894 25.8561 15.3176 25.4263 14.3535 24.7507C13.8437 24.4201 13.7333 23.7504 14.0052 23.2634L14.0214 23.2344L14.0397 23.2068C14.497 22.5168 14.907 21.7988 15.2698 21.0524C15.2554 21.049 15.2405 21.0456 15.2251 21.042C15.1376 21.0216 15.031 20.9969 14.8917 20.9599C14.5589 20.8715 14.0878 20.7114 13.7111 20.2594L13.7022 20.2487L13.6937 20.2378C13.1935 19.5967 13.0296 18.6767 13.3438 17.8663C13.6462 17.0864 14.3758 16.4628 15.2686 16.3873C15.5258 16.3476 15.8181 16.3582 16.1153 16.4681C16.3846 16.5473 16.6252 16.6811 16.7823 16.7685C16.791 16.7734 16.7994 16.7781 16.8076 16.7826C16.8489 16.8055 16.886 16.8259 16.9197 16.8441C17.1306 16.0557 17.2865 15.2567 17.3875 14.447C17.3977 14.0878 17.5868 13.7983 17.8221 13.6312C18.0622 13.4607 18.341 13.414 18.5827 13.4459L18.5941 13.4474C19.7054 13.6101 20.7981 13.9265 21.8336 14.4101L21.8371 14.4117C22.405 14.6801 22.8307 15.361 22.627 16.1254L22.6246 16.1343C22.5325 16.4663 22.357 16.8092 22.2384 17.0409C22.2102 17.096 22.1852 17.1448 22.1654 17.1857C22.0293 17.4655 22.0046 17.5888 22.009 17.6649C22.0264 17.9125 22.183 18.0985 22.3295 18.1498C22.5271 18.2191 22.7595 18.1753 22.9436 17.9867L22.9467 17.9835C23.0165 17.9127 23.0821 17.7912 23.1609 17.5047C23.1735 17.4591 23.1879 17.4013 23.2044 17.3352C23.2653 17.0914 23.3546 16.7334 23.486 16.4448C23.8316 15.6816 24.6301 15.5433 25.1576 15.6799L25.1713 15.6835L25.185 15.6875C26.2953 16.0167 27.2996 16.4827 28.2529 17.0843ZM24.9188 17.4119C24.9011 17.4742 24.8839 17.5429 24.8637 17.624C24.8393 17.7212 24.8106 17.8362 24.7713 17.979C24.6751 18.328 24.5141 18.8183 24.1206 19.2182C23.4974 19.8557 22.605 20.0745 21.7922 19.7897C20.9279 19.4869 20.3961 18.639 20.3386 17.7832L20.3383 17.7798C20.302 17.2077 20.5155 16.7245 20.6694 16.4081C20.7247 16.2943 20.7725 16.2 20.8139 16.1184C20.8586 16.0304 20.8958 15.957 20.9269 15.8898C20.2959 15.6141 19.6379 15.4079 18.9639 15.2685C18.8379 16.0745 18.662 16.8707 18.436 17.6568C18.2286 18.4138 17.4786 18.8289 16.7782 18.6475L16.7692 18.6452L16.7603 18.6427C16.4688 18.56 16.2095 18.4159 16.0405 18.3219C16.0321 18.3173 16.0241 18.3128 16.0162 18.3085C15.8128 18.1956 15.7223 18.1507 15.6503 18.1316L15.6001 18.1183L15.5518 18.0986C15.5514 18.0985 15.5495 18.0981 15.5468 18.0978C15.5415 18.0974 15.5297 18.0973 15.5102 18.1008L15.4636 18.1093L15.4163 18.1122C15.1964 18.1261 14.9829 18.2913 14.8979 18.5107C14.8213 18.7082 14.8576 18.9625 14.9874 19.1382C15.0255 19.18 15.0926 19.2256 15.3079 19.2828C15.3655 19.298 15.4262 19.3124 15.4989 19.3295L15.5132 19.3328C15.5792 19.3483 15.6557 19.3662 15.7327 19.3861C15.8979 19.4288 16.0984 19.4885 16.3037 19.5873C17.0131 19.925 17.2529 20.7825 16.9351 21.473L16.9344 21.4746C16.5909 22.2168 16.2056 22.9341 15.7785 23.6264C16.3693 23.9676 17.0199 24.2283 17.7107 24.4396C17.7313 24.3663 17.7508 24.2845 17.7744 24.1857C17.7963 24.0934 17.8219 23.9863 17.8552 23.8573C17.9459 23.5067 18.0999 23.0013 18.5019 22.5936L18.5063 22.5892C19.1226 21.9734 20.0836 21.7589 20.8696 22.072C21.6341 22.3766 22.2254 23.1649 22.2901 24.0545C22.3425 24.6473 22.1173 25.1462 21.9576 25.4663C21.8955 25.5907 21.8428 25.6913 21.7981 25.7767C21.7559 25.8571 21.7208 25.9242 21.6914 25.9852C22.3447 26.2768 22.9975 26.5053 23.649 26.6276C23.7751 25.8137 23.9523 25.0098 24.1804 24.2163C24.3878 23.4592 25.1378 23.0441 25.8382 23.2255L25.8603 23.2312L25.882 23.2382C26.0901 23.3047 26.2716 23.3938 26.4159 23.4696C26.4879 23.5074 26.5425 23.5372 26.5907 23.5635C26.6572 23.5998 26.7115 23.6294 26.7822 23.6642C26.9753 23.7592 27.0674 23.773 27.1606 23.7584L27.1669 23.7574C27.3737 23.7268 27.5731 23.5607 27.6401 23.3613L27.6662 23.284L27.7058 23.213C27.7502 23.1335 27.767 23.0412 27.7549 22.9436C27.7429 22.8456 27.7035 22.76 27.6568 22.7025C27.6181 22.6608 27.5968 22.6422 27.585 22.633C27.5759 22.626 27.5712 22.6234 27.5633 22.6202L27.5562 22.6173L27.5491 22.6143C27.4483 22.571 27.3221 22.5409 27.1013 22.4928C27.0933 22.4911 27.0851 22.4893 27.0767 22.4875C26.8874 22.4464 26.6155 22.3875 26.3562 22.2762L26.3426 22.2703L26.3292 22.264C25.6171 21.9274 25.376 21.0683 25.6943 20.3767L25.6951 20.375C26.0355 19.6393 26.4171 18.9281 26.8398 18.2414C26.2313 17.9032 25.5979 17.6274 24.9188 17.4119Z" fill="#757574"/>
</svg>
