<svg width="42" height="42" viewBox="0 0 42 42" fill="none" xmlns="http://www.w3.org/2000/svg">
<circle cx="21" cy="21" r="21" fill="#D7CE07"/>
<path fill-rule="evenodd" clip-rule="evenodd" d="M23.0481 24.2265C22.0908 24.8223 20.9606 25.1665 19.75 25.1665C16.2982 25.1665 13.5 22.3683 13.5 18.9165C13.5 15.4647 16.2982 12.6665 19.75 12.6665C23.2018 12.6665 26 15.4647 26 18.9165C26 20.5546 25.3698 22.0455 24.3387 23.16L29.0893 27.9106C29.4147 28.236 29.4147 28.7637 29.0893 29.0891C28.7638 29.4145 28.2362 29.4145 27.9107 29.0891L23.0481 24.2265ZM24.3333 18.9165C24.3333 21.4478 22.2813 23.4998 19.75 23.4998C17.2187 23.4998 15.1667 21.4478 15.1667 18.9165C15.1667 16.3852 17.2187 14.3332 19.75 14.3332C22.2813 14.3332 24.3333 16.3852 24.3333 18.9165Z" fill="#757574"/>
</svg>
