<svg width="42" height="42" viewBox="0 0 42 42" fill="none" xmlns="http://www.w3.org/2000/svg">
<circle cx="21" cy="21" r="21" fill="#D7CE07"/>
<path fill-rule="evenodd" clip-rule="evenodd" d="M13.5 28.4998C13.5 28.9601 13.8731 29.3332 14.3333 29.3332C14.7936 29.3332 15.1667 28.9601 15.1667 28.4998V25.1665H20.1667V27.2498C20.1667 27.7101 20.5398 28.0832 21 28.0832H28.5C28.7645 28.0832 29.0132 27.9576 29.1703 27.7449C29.3274 27.5322 29.3743 27.2575 29.2965 27.0048L27.7084 21.8433L29.2906 17.0967C29.3753 16.8426 29.3327 16.5632 29.176 16.3459C29.0194 16.1286 28.7679 15.9998 28.5 15.9998H24.3333V15.1665C24.3333 14.7063 23.9602 14.3332 23.5 14.3332H15.1667L15.1667 13.4998C15.1667 13.0396 14.7936 12.6665 14.3333 12.6665C13.8731 12.6665 13.5 13.0396 13.5 13.4998V28.4998ZM15.1667 15.9998V23.4998H22.6667V15.9998H15.1667ZM24.3333 24.3332V17.6665H27.3438L26.0428 21.5696C25.9878 21.7344 25.9858 21.9122 26.0369 22.0782L27.3717 26.4165H21.8333V25.1665H23.5C23.9602 25.1665 24.3333 24.7934 24.3333 24.3332Z" fill="#757574"/>
</svg>
