<svg width="58" height="71" viewBox="0 0 58 71" fill="none" xmlns="http://www.w3.org/2000/svg">
<path id="Vector" d="M10.4345 46.6321C11.0935 55.5939 16.2333 62.7107 31.3894 62.7107C42.9871 62.7107 47.5998 58.6251 47.5998 51.2448C47.5998 44.9188 43.9096 41.4922 35.6067 40.306L20.3189 38.0656C8.7212 36.4841 2.39518 30.4216 2.39518 20.2737C2.39518 8.01702 12.016 0.504883 28.7536 0.504883C45.8865 0.504883 55.7709 9.20314 56.6935 21.5916H46.2819C45.623 14.7384 40.4831 8.54419 28.49 8.54419C17.2877 8.54419 12.6749 13.0251 12.6749 19.4829C12.6749 24.0956 14.9154 28.0494 23.2183 29.2355L37.32 31.2124C52.3443 33.4529 57.8796 39.9107 57.8796 50.7176C57.8796 64.1604 48.6541 70.75 31.1258 70.75C9.51191 70.75 0.945469 60.4702 0.681885 46.6321H10.4345Z" fill="white"/>
</svg>
