<svg width="724" height="114" viewBox="0 0 724 114" fill="none" xmlns="http://www.w3.org/2000/svg">
<g opacity="0.1">
<path d="M676.434 65.6321C677.093 74.5939 682.233 81.7107 697.389 81.7107C708.987 81.7107 713.6 77.6251 713.6 70.2448C713.6 63.9188 709.91 60.4922 701.607 59.306L686.319 57.0656C674.721 55.4841 668.395 49.4216 668.395 39.2737C668.395 27.017 678.016 19.5049 694.754 19.5049C711.887 19.5049 721.771 28.2031 722.693 40.5916H712.282C711.623 33.7384 706.483 27.5442 694.49 27.5442C683.288 27.5442 678.675 32.0251 678.675 38.4829C678.675 43.0956 680.915 47.0494 689.218 48.2355L703.32 50.2124C718.344 52.4529 723.88 58.9107 723.88 69.7176C723.88 83.1604 714.654 89.75 697.126 89.75C675.512 89.75 666.945 79.4702 666.682 65.6321H676.434Z" fill="white"/>
<path d="M627.293 89.75C604.624 89.75 594.608 74.4622 594.608 54.5616C594.608 34.9246 605.415 19.6367 627.293 19.6367C647.061 19.6367 658.264 33.2113 658.264 52.4529C658.264 54.1662 658.264 55.4841 658 57.0656H605.02C605.81 75.1211 614.509 81.7107 627.688 81.7107C640.604 81.7107 646.534 75.6483 648.511 67.3454H658.132C656.814 77.3616 649.17 89.75 627.293 89.75ZM605.283 49.1581H647.984C647.457 34.002 639.681 27.676 627.424 27.676C614.904 27.676 606.733 33.6067 605.283 49.1581Z" fill="white"/>
<path d="M521.119 54.6934C521.119 34.5292 532.716 19.6367 554.067 19.6367C573.835 19.6367 583.72 30.5755 584.774 45.8633H574.89C573.308 35.0564 566.719 28.2032 554.462 28.2032C540.492 28.2032 531.794 35.7153 531.794 54.6934C531.794 73.8032 540.228 81.1836 554.067 81.1836C567.378 81.1836 574.231 73.6714 575.549 62.4691H585.565C584.774 77.6252 574.099 89.75 554.067 89.75C532.453 89.75 521.119 74.8575 521.119 54.6934Z" fill="white"/>
<path d="M449.159 87.6414V21.7454H459.703V39.0101C463.788 27.0171 471.827 19.6367 484.875 19.6367C501.481 19.6367 508.466 28.5986 508.466 45.5997V87.6414H497.922V46.7859C497.922 32.6841 491.728 28.4668 482.107 28.4668C467.478 28.4668 459.703 39.8009 459.703 62.4691V87.6414H449.159Z" fill="white"/>
<path d="M404.894 89.75C382.225 89.75 372.209 74.4622 372.209 54.5616C372.209 34.9246 383.016 19.6367 404.894 19.6367C424.662 19.6367 435.865 33.2113 435.865 52.4529C435.865 54.1662 435.865 55.4841 435.601 57.0656H382.621C383.412 75.1211 392.11 81.7107 405.289 81.7107C418.205 81.7107 424.135 75.6483 426.112 67.3454H435.733C434.415 77.3616 426.771 89.75 404.894 89.75ZM382.884 49.1581H425.585C425.058 34.002 417.282 27.676 405.025 27.676C392.505 27.676 384.334 33.6067 382.884 49.1581Z" fill="white"/>
<path d="M348.492 87.6416V21.7457H359.035V87.6416H348.492ZM346.91 10.9387V0H360.485V10.9387H346.91Z" fill="white"/>
<path d="M300.25 87.6418V21.7458H310.661V39.2741C314.615 28.2036 322.259 20.8232 334.911 20.8232H337.283V31.2348H334.384C314.879 30.5758 310.793 44.8094 310.793 63.392V87.6418H300.25Z" fill="white"/>
<path d="M255.984 89.75C233.316 89.75 223.3 74.4622 223.3 54.5616C223.3 34.9246 234.107 19.6367 255.984 19.6367C275.753 19.6367 286.955 33.2113 286.955 52.4529C286.955 54.1662 286.955 55.4841 286.692 57.0656H233.711C234.502 75.1211 243.2 81.7107 256.38 81.7107C269.295 81.7107 275.226 75.6483 277.203 67.3454H286.824C285.506 77.3616 277.862 89.75 255.984 89.75ZM233.975 49.1581H276.676C276.148 34.002 268.373 27.676 256.116 27.676C243.596 27.676 235.425 33.6067 233.975 49.1581Z" fill="white"/>
<path d="M182.803 89.75C170.678 89.75 162.375 84.4784 157.894 75.3847V114H147.351V21.7454H157.894V34.1338C162.375 24.9084 170.678 19.6367 182.803 19.6367C203.362 19.6367 212.851 34.5292 212.851 54.6934C212.851 74.9893 203.362 89.75 182.803 89.75ZM157.894 54.6934C157.894 73.276 166.724 81.1836 180.694 81.1836C195.586 81.1836 202.176 72.4853 202.176 54.6934C202.176 37.0333 195.586 28.2032 180.694 28.2032C166.724 28.2032 157.894 36.1107 157.894 54.6934Z" fill="white"/>
<path d="M69.5913 87.6416L95.6861 54.43L70.1184 21.7456H82.9023L102.276 47.7086L121.649 21.7456H133.642L108.338 54.1664L134.96 87.6416H122.308L101.88 60.756L81.4525 87.6416H69.5913Z" fill="white"/>
<path d="M32.6844 89.75C10.0162 89.75 0 74.4622 0 54.5616C0 34.9246 10.8069 19.6367 32.6844 19.6367C52.4532 19.6367 63.6555 33.2113 63.6555 52.4529C63.6555 54.1662 63.6555 55.4841 63.3919 57.0656H10.4116C11.2023 75.1211 19.9006 81.7107 33.0798 81.7107C45.9954 81.7107 51.926 75.6483 53.9029 67.3454H63.5237C62.2058 77.3616 54.5619 89.75 32.6844 89.75ZM10.6751 49.1581H53.3757C52.8486 34.002 45.0728 27.676 32.8162 27.676C20.296 27.676 12.1249 33.6067 10.6751 49.1581Z" fill="white"/>
</g>
</svg>
