<svg width="42" height="42" viewBox="0 0 42 42" fill="none" xmlns="http://www.w3.org/2000/svg">
<circle cx="21" cy="21" r="21" fill="#D7CE07"/>
<mask id="mask0_216_133" style="mask-type:alpha" maskUnits="userSpaceOnUse" x="11" y="11" width="20" height="20">
<rect x="11" y="11" width="20" height="20" fill="#D9D9D9"/>
</mask>
<g mask="url(#mask0_216_133)">
<path d="M20.1667 27.229L16 24.8332C15.7361 24.6804 15.5312 24.479 15.3854 24.229C15.2396 23.979 15.1667 23.7012 15.1667 23.3957V18.604C15.1667 18.2984 15.2396 18.0207 15.3854 17.7707C15.5312 17.5207 15.7361 17.3193 16 17.1665L20.1667 14.7707C20.4305 14.6179 20.7083 14.5415 21 14.5415C21.2917 14.5415 21.5694 14.6179 21.8333 14.7707L26 17.1665C26.2639 17.3193 26.4687 17.5207 26.6146 17.7707C26.7604 18.0207 26.8333 18.2984 26.8333 18.604V23.3957C26.8333 23.7012 26.7604 23.979 26.6146 24.229C26.4687 24.479 26.2639 24.6804 26 24.8332L21.8333 27.229C21.5694 27.3818 21.2917 27.4582 21 27.4582C20.7083 27.4582 20.4305 27.3818 20.1667 27.229ZM20.1667 25.3123V21.479L16.8333 19.5415V23.3957L20.1667 25.3123ZM21.8333 25.3123L25.1667 23.3957V19.5415L21.8333 21.479V25.3123ZM12.6667 16.8332V14.3332C12.6667 13.8748 12.8299 13.4825 13.1562 13.1561C13.4826 12.8297 13.875 12.6665 14.3333 12.6665H16.8333V14.3332H14.3333V16.8332H12.6667ZM16.8333 29.3332H14.3333C13.875 29.3332 13.4826 29.17 13.1562 28.8436C12.8299 28.5172 12.6667 28.1248 12.6667 27.6665V25.1665H14.3333V27.6665H16.8333V29.3332ZM25.1667 29.3332V27.6665H27.6667V25.1665H29.3333V27.6665C29.3333 28.1248 29.1701 28.5172 28.8437 28.8436C28.5174 29.17 28.125 29.3332 27.6667 29.3332H25.1667ZM27.6667 16.8332V14.3332H25.1667V12.6665H27.6667C28.125 12.6665 28.5174 12.8297 28.8437 13.1561C29.1701 13.4825 29.3333 13.8748 29.3333 14.3332V16.8332H27.6667ZM21 20.0415L24.2917 18.104L21 16.2082L17.7083 18.104L21 20.0415Z" fill="#757574"/>
</g>
</svg>
