<svg width="70" height="30" viewBox="0 0 70 30" fill="none" xmlns="http://www.w3.org/2000/svg">
<rect width="70" height="30" fill="#EEEEEE"/>
<g id="portfolio 1" clip-path="url(#clip0_0_1)">
<rect width="1440" height="3058" transform="translate(-80 -35)" fill="#F6F6F5"/>
<g id="Top bar">
<g id="MG" clip-path="url(#clip1_0_1)">
<g id="Layer 1">
<g id="Group">
<path id="Vector" d="M4.86823 0.401367H14.7932L21.6208 16.9439H21.9642L28.7986 0.401367H38.7236V29.605H30.9196V12.7212H30.6907L24.1458 29.3775H19.4392L12.8944 12.6075H12.6655V29.605H4.86823V0.401367Z" fill="#262626"/>
<path id="Vector_2" d="M61.5968 10.0379C61.4756 9.53602 61.2736 9.08766 61.011 8.70622C60.7484 8.32478 60.4117 7.99018 60.0144 7.72251C59.6172 7.45483 59.1593 7.24738 58.6341 7.10685C58.1156 6.96632 57.5433 6.8994 56.9171 6.8994C55.5771 6.8994 54.4392 7.22061 53.4965 7.85635C52.5539 8.49208 51.8401 9.40888 51.3419 10.6067C50.8503 11.8046 50.6012 13.2501 50.6012 14.9431C50.6012 16.6362 50.8369 18.1151 51.3015 19.333C51.7728 20.551 52.4663 21.4811 53.3955 22.1303C54.3247 22.7794 55.4761 23.1006 56.8498 23.1006C58.0618 23.1006 59.0785 22.9266 59.8865 22.5719C60.6945 22.2173 61.3005 21.7221 61.7045 21.0729C62.1085 20.4238 62.3105 19.6676 62.3105 18.791L63.6841 18.9315H0V13.2835H70V17.3321C70 19.9955 69.4344 22.2708 68.3032 24.1579C67.172 26.0451 65.6098 27.4905 63.6235 28.4943C61.6372 29.4981 59.368 30 56.8026 30C53.9409 30 51.4294 29.3977 49.268 28.1865C47.1066 26.9819 45.4232 25.2554 44.2112 23.027C42.9992 20.7919 42.3932 18.1352 42.3932 15.0569C42.3932 12.6411 42.7636 10.5064 43.5042 8.6393C44.2449 6.77894 45.2751 5.19964 46.5948 3.91479C47.9146 2.62994 49.4431 1.65291 51.1735 0.990408C52.904 0.327905 54.7624 0 56.742 0C58.486 0 60.102 0.247602 61.5968 0.736114C63.0916 1.22463 64.418 1.92059 65.5695 2.81731C66.7209 3.71403 67.6501 4.77805 68.3571 6.00268C69.0641 7.2273 69.495 8.57238 69.6499 10.0379H61.59H61.5968Z" fill="#262626"/>
</g>
</g>
</g>
</g>
</g>
<defs>
<clipPath id="clip0_0_1">
<rect width="1440" height="3058" fill="white" transform="translate(-80 -35)"/>
</clipPath>
<clipPath id="clip1_0_1">
<rect width="69.5695" height="30" fill="white"/>
</clipPath>
</defs>
</svg>
